<svg width="40" height="40" viewBox="0 0 40 40" fill="none" xmlns="http://www.w3.org/2000/svg">
<path d="M23.5196 15.2305C23.5704 13.8047 22.4571 12.6055 21.0313 12.5508C19.6055 12.5 18.4063 13.6133 18.3516 15.039C18.3516 15.082 18.3594 15.1211 18.3594 15.1601L17.7188 15.9023L16.7774 13.8008C16.3165 12.7734 15.1133 12.3125 14.0821 12.7734C13.0547 13.2344 12.5938 14.4375 13.0547 15.4687L15.3047 20.4922C15.5899 21.1289 16.1797 21.5742 16.8672 21.6758C16.9415 21.6875 17.0157 21.6914 17.0899 21.6953C17.7032 21.7187 18.3008 21.4609 18.7071 20.9922L21.5899 17.6601C21.6016 17.6484 21.6016 17.6289 21.6133 17.6172C22.6758 17.3281 23.4766 16.3867 23.5196 15.2305V15.2305Z" fill="white"/>
<path d="M19.0937 12.7773C19.6016 12.3789 20.2383 12.1328 20.9375 12.1328L21.0508 12.1367C21.4609 12.1523 21.8555 12.25 22.2148 12.418C23.457 11.7188 24.3047 10.4062 24.3047 8.87891C24.3047 6.625 22.4805 4.80078 20.2266 4.80078C17.9727 4.80078 16.1484 6.625 16.1484 8.87891C16.1445 10.7344 17.3945 12.2852 19.0937 12.7773V12.7773ZM30.4023 13.1328C29.8008 13.1367 29.2578 13.3516 28.8203 13.6953L23.5703 13.7188C23.8203 14.1836 23.9531 14.7031 23.9336 15.2422C23.8945 16.3398 23.2461 17.2695 22.2969 17.7578C22.3711 17.7656 22.4336 17.8008 22.5117 17.8008H22.5195L28.8359 17.7734C29.2773 18.1133 29.8242 18.3242 30.4258 18.3203C31.8594 18.3125 33.0156 17.1484 33.0078 15.7148C33.0039 14.2852 31.8359 13.1289 30.4023 13.1328V13.1328ZM25.1133 25.6719L21.8672 21.4961C21.8359 21.457 21.8047 21.4219 21.7734 21.3828L22.2031 17.8086C22.0898 17.8633 21.9883 17.9375 21.8672 17.9766L19.2969 20.9453C19.1953 21 19.0977 21.0625 19.0078 21.1328C18.793 21.3008 18.6211 21.5 18.4961 21.7188C18.1055 21.9727 17.6445 22.1094 17.168 22.1094H17.0781C16.9883 22.1055 16.8984 22.0977 16.8086 22.0859C15.9726 21.9648 15.2695 21.4297 14.9258 20.6602L14.2266 19.0977L13.8398 22.3086H13.8359L13.3398 26L10.3437 31.8516C9.83202 32.8555 10.2266 34.082 11.2305 34.5937C11.5039 34.7344 11.7969 34.8086 12.082 34.8164C12.8516 34.8437 13.6016 34.4336 13.9727 33.707L17.1289 27.543C17.2344 27.3359 17.3047 27.1172 17.3359 26.8867L17.7891 23.5156L18.4101 23.5898C18.4726 23.7305 18.5547 23.8633 18.6523 23.9883L21.3437 27.4492L20.3867 32.7969C20.1875 33.9062 20.9258 34.9648 22.0351 35.1641C22.1328 35.1797 22.2266 35.1914 22.3203 35.1953C23.3203 35.2305 24.2187 34.5312 24.3984 33.5156L25.5078 27.2812C25.6133 26.7109 25.4687 26.125 25.1133 25.6719V25.6719ZM17.1601 13.6328L17.832 15.1367L17.9375 15.0156C17.9687 14.2617 18.2773 13.5898 18.7539 13.082L16.5273 12.8125C16.7852 13.0391 17.0117 13.3047 17.1601 13.6328V13.6328Z" fill="white"/>
</svg>
