<svg width="40" height="40" viewBox="0 0 40 40" fill="none" xmlns="http://www.w3.org/2000/svg">
<path d="M25.7617 18.3438C25.7617 19.6129 26.2659 20.83 27.1633 21.7274C28.0606 22.6248 29.2778 23.1289 30.5469 23.1289C31.816 23.1289 33.0331 22.6248 33.9305 21.7274C34.8279 20.83 35.332 19.6129 35.332 18.3438C35.332 17.0747 34.8279 15.8575 33.9305 14.9601C33.0331 14.0628 31.816 13.5586 30.5469 13.5586C29.2778 13.5586 28.0606 14.0628 27.1633 14.9601C26.2659 15.8575 25.7617 17.0747 25.7617 18.3438V18.3438Z" fill="url(#paint0_linear_4_327)"/>
<path d="M31.3829 30.8867C29.5508 30.8867 27.8321 30.1718 26.5391 28.8789L26.0665 28.4062C24.8555 27.1953 22.7501 27.1953 21.543 28.4062L21.1133 28.8359C18.4415 31.5078 14.0938 31.5078 11.4219 28.8359L10.879 28.2929C9.63287 27.0468 7.60553 27.0468 6.35553 28.2929C5.64069 29.0078 4.48444 29.0078 3.76959 28.2929C3.05475 27.5781 3.05475 26.4218 3.76959 25.707C6.44147 23.0351 10.7891 23.0351 13.461 25.707L14.004 26.25C15.2501 27.496 17.2813 27.496 18.5274 26.25L18.9571 25.8203C21.5469 23.2304 26.0587 23.2304 28.6485 25.8203L29.1212 26.2929C30.3321 27.5039 32.4376 27.5039 33.6446 26.2929C34.3555 25.5781 35.5157 25.5781 36.2305 26.2929C36.9454 27.0078 36.9454 28.164 36.2305 28.8789C34.9337 30.1757 33.2149 30.8867 31.3829 30.8867Z" fill="url(#paint1_linear_4_327)"/>
<path d="M11.2109 12.1953L17.6953 14.5195L18.7187 16.4805L8.25385 21.9922C10.1288 21.8945 12.0312 22.5351 13.4609 23.9609L14.0038 24.5039C15.2499 25.75 17.2812 25.75 18.5273 24.5039L18.957 24.0742C20.7578 22.2734 23.4843 21.7539 25.8515 22.4609L22.414 15.8984L20.5742 12.3047C20.3788 11.9336 20.0468 11.6562 19.6484 11.5312L12.1562 9.18358C11.3281 8.92577 10.4374 9.38671 10.1796 10.2187C9.91791 11.0508 10.3788 11.9375 11.2109 12.1953V12.1953Z" fill="url(#paint2_linear_4_327)"/>
<defs>
<linearGradient id="paint0_linear_4_327" x1="30.5469" y1="13.5586" x2="30.5469" y2="23.1289" gradientUnits="userSpaceOnUse">
<stop stop-color="#FFA992"/>
<stop offset="1" stop-color="#FD0D92"/>
</linearGradient>
<linearGradient id="paint1_linear_4_327" x1="20.0001" y1="23.7031" x2="20.0001" y2="30.8867" gradientUnits="userSpaceOnUse">
<stop stop-color="#FFA992"/>
<stop offset="1" stop-color="#FD0D92"/>
</linearGradient>
<linearGradient id="paint2_linear_4_327" x1="17.0527" y1="9.11208" x2="17.0527" y2="25.4385" gradientUnits="userSpaceOnUse">
<stop stop-color="#FFA992"/>
<stop offset="1" stop-color="#FD0D92"/>
</linearGradient>
</defs>
</svg>
