<svg width="24" height="24" viewBox="0 0 24 24" fill="none" xmlns="http://www.w3.org/2000/svg">
<path d="M0.800003 23.2H3.03984e-06V24H0.800003V23.2ZM3.2 18.4V19.2H4.8V18.4H3.2ZM24 4V3.2H22.4V4H24ZM3.03984e-06 0V23.2H1.6V0H3.03984e-06ZM0.800003 24H24V22.4H0.800003V24ZM4.8 18.4C4.8 16.0729 5.19005 13.7922 5.93105 12.1249C6.68411 10.4305 7.67702 9.6 8.8 9.6V8C6.72299 8 5.31589 9.56947 4.46895 11.4751C3.60995 13.4078 3.2 15.9271 3.2 18.4H4.8ZM8.8 9.6C9.31322 9.6 9.82707 9.85217 10.4074 10.3878C10.9933 10.9287 11.5486 11.6648 12.16 12.48C12.7486 13.2648 13.3933 14.1287 14.1074 14.7878C14.8271 15.4522 15.7132 16 16.8 16V14.4C16.2868 14.4 15.7729 14.1478 15.1926 13.6122C14.6067 13.0713 14.0514 12.3352 13.44 11.52C12.8514 10.7352 12.2067 9.8713 11.4926 9.21216C10.7729 8.54783 9.88679 8 8.8 8V9.6ZM16.8 16C18.7571 16 20.5801 14.7796 21.8764 12.7272C23.1764 10.6688 24 7.71056 24 4H22.4C22.4 7.48944 21.6236 10.1312 20.5236 11.8728C19.4199 13.6204 18.043 14.4 16.8 14.4V16Z" fill="white"/>
</svg>
