<svg width="24" height="24" viewBox="0 0 24 24" fill="none" xmlns="http://www.w3.org/2000/svg">
<path d="M8.8 0.799988H2.4C1.51635 0.799988 0.800003 1.51633 0.800003 2.39999V8.79999C0.800003 9.68364 1.51635 10.4 2.4 10.4H8.8C9.68366 10.4 10.4 9.68364 10.4 8.79999V2.39999C10.4 1.51633 9.68366 0.799988 8.8 0.799988Z" stroke="white" stroke-width="1.6"/>
<path d="M21.6 0.799988H15.2C14.3163 0.799988 13.6 1.51633 13.6 2.39999V8.79999C13.6 9.68364 14.3163 10.4 15.2 10.4H21.6C22.4837 10.4 23.2 9.68364 23.2 8.79999V2.39999C23.2 1.51633 22.4837 0.799988 21.6 0.799988Z" stroke="white" stroke-width="1.6"/>
<path d="M21.6 13.6H15.2C14.3163 13.6 13.6 14.3163 13.6 15.2V21.6C13.6 22.4836 14.3163 23.2 15.2 23.2H21.6C22.4837 23.2 23.2 22.4836 23.2 21.6V15.2C23.2 14.3163 22.4837 13.6 21.6 13.6Z" stroke="white" stroke-width="1.6"/>
<path d="M8.8 13.6H2.4C1.51635 13.6 0.800003 14.3163 0.800003 15.2V21.6C0.800003 22.4836 1.51635 23.2 2.4 23.2H8.8C9.68366 23.2 10.4 22.4836 10.4 21.6V15.2C10.4 14.3163 9.68366 13.6 8.8 13.6Z" stroke="white" stroke-width="1.6"/>
</svg>
