<svg width="40" height="40" viewBox="0 0 40 40" fill="none" xmlns="http://www.w3.org/2000/svg">
<path d="M5.18605 19.7823C6.13014 19.7503 7.07796 19.7739 8.02342 19.7739V19.7799C8.87431 19.7799 9.72893 19.8224 10.5753 19.7623C11.0025 19.7316 11.7244 20.0927 11.7449 19.2099C11.7592 18.5643 11.5848 17.9092 10.8474 17.8219C8.87779 17.5895 6.89168 17.5693 4.92352 17.8396C4.44856 17.9045 3.90058 18.2905 4.07027 18.9242C4.2015 19.4211 4.53791 19.8035 5.18605 19.7823Z" fill="url(#paint0_linear_4_119)"/>
<path d="M5.62884 15.7802C7.14011 15.7742 8.66549 15.6574 10.16 15.8155C11.9958 16.0114 13.3397 15.4002 14.5453 13.6818C11.4179 13.6818 8.50785 13.6959 5.59808 13.6723C4.80784 13.6654 4.06295 13.7915 4.0952 14.685C4.12497 15.4946 4.82934 15.7825 5.62884 15.7802Z" fill="url(#paint1_linear_4_119)"/>
<path d="M14.9533 24.1302C15.3854 24.1267 16.0169 24.0618 15.4474 23.474C14.7674 22.7718 14.1572 21.9538 12.9027 22.0023C10.4987 22.0967 8.08895 22.0531 5.6815 22.014C4.82446 21.9998 4.04049 22.1935 4.07267 23.094C4.10343 23.9626 4.90797 24.1726 5.74941 24.1538C7.21166 24.1208 8.67608 24.1444 10.1395 24.1444V24.135C11.7449 24.135 13.3493 24.1433 14.9533 24.1302Z" fill="url(#paint2_linear_4_119)"/>
<path d="M24.2301 29.2537C23.125 30.061 21.5708 29.6042 20.3055 30.3171C19.9166 30.5367 19.5929 30.8128 19.3841 31.1267C18.2872 32.7733 17.2787 34.4762 16.1875 36.1273C15.5441 37.1023 15.7914 37.9579 16.6028 38.5563C17.4696 39.1936 18.5235 39.183 19.2195 38.2541C21.1817 35.64 23.0807 32.9796 24.9857 30.3254C25.5143 29.5889 25.0488 29.3515 24.2301 29.2537Z" fill="url(#paint3_linear_4_119)"/>
<path d="M35.8173 15.1605C35.1106 13.5612 33.7501 14.319 32.6125 14.2541C31.5408 14.1927 30.4413 15.3988 29.5333 14.6034C28.7489 13.9165 28.2906 12.7718 27.9323 11.7473C27.4695 10.4243 26.3951 9.49195 25.5405 8.11219C28.5687 9.26646 30.3914 8.19138 31.2758 6.77151C32.294 5.13689 32.0144 2.99252 30.6325 1.73195C29.236 0.458423 27.1304 0.266177 25.58 1.2741C23.5972 2.5617 23.3166 4.20933 24.657 7.47499C22.504 6.80696 20.7207 5.79553 18.8253 5.05555C18.0698 4.76057 17.3523 4.02409 16.4737 4.37928C14.1489 5.31992 11.8332 6.29246 9.57273 7.37233C8.17816 8.03803 7.88133 8.98924 8.46858 10.049C8.94696 10.9143 10.1549 11.1915 11.3474 10.6769C12.3681 10.2367 13.3966 9.80474 14.3758 9.28305C16.0154 8.40962 17.5017 8.39549 19.1023 9.49784C20.1453 10.2166 19.995 10.6532 19.2252 11.3767C17.4812 13.0149 15.6195 14.541 14.1631 16.4553C13.0936 17.8608 13.1439 19.3125 14.4256 20.5236C16.0037 22.0154 17.6555 23.434 19.2575 24.9023C19.7539 25.3554 20.1885 25.8123 19.0222 26.027C17.4599 26.315 15.9238 26.7293 14.3661 27.0445C13.2273 27.2735 12.294 28.3203 12.4898 29.2397C12.7201 30.3231 14.0772 31.0183 15.2446 30.7457C18.3287 30.0245 21.413 29.3129 24.5139 28.6721C26.1037 28.3439 26.8486 26.7754 25.8914 25.5103C25.001 24.3358 24.0438 23.2111 23.1843 22.0167C21.1669 19.2138 21.1839 19.2019 23.7251 16.7494C25.1539 15.371 25.1416 15.378 26.2278 17.172C26.7008 17.9509 27.1039 18.8998 28.2691 18.8078C30.568 18.6273 32.7929 18.0442 35.0056 17.4575C35.8437 17.2353 36.178 15.9772 35.8173 15.1605Z" fill="url(#paint4_linear_4_119)"/>
<defs>
<linearGradient id="paint0_linear_4_119" x1="7.89222" y1="17.6422" x2="7.89222" y2="19.81" gradientUnits="userSpaceOnUse">
<stop stop-color="#7CDBFA"/>
<stop offset="1" stop-color="#5AC9ED"/>
</linearGradient>
<linearGradient id="paint1_linear_4_119" x1="9.31974" y1="13.6721" x2="9.31974" y2="15.8507" gradientUnits="userSpaceOnUse">
<stop stop-color="#7CDBFA"/>
<stop offset="1" stop-color="#5AC9ED"/>
</linearGradient>
<linearGradient id="paint2_linear_4_119" x1="9.87291" y1="22.0002" x2="9.87291" y2="24.1549" gradientUnits="userSpaceOnUse">
<stop stop-color="#7CDBFA"/>
<stop offset="1" stop-color="#5AC9ED"/>
</linearGradient>
<linearGradient id="paint3_linear_4_119" x1="20.5161" y1="29.2537" x2="20.5161" y2="38.9984" gradientUnits="userSpaceOnUse">
<stop stop-color="#7CDBFA"/>
<stop offset="1" stop-color="#5AC9ED"/>
</linearGradient>
<linearGradient id="paint4_linear_4_119" x1="22.0723" y1="0.630157" x2="22.0723" y2="30.805" gradientUnits="userSpaceOnUse">
<stop stop-color="#7CDBFA"/>
<stop offset="1" stop-color="#5AC9ED"/>
</linearGradient>
</defs>
</svg>
